<svg xmlns="http://www.w3.org/2000/svg" version="1.1" viewBox="-5.0 -10.0 110.0 135.0">
 <path fill="#9a9a9a" d="m90.027 31.48h-80.059c-1.1992 0-2.2969 0.49219-3.0859 1.2852-0.79687 0.79688-1.2852 1.8867-1.2852 3.0859v12.969h88.805v-12.969c0-1.1992-0.49219-2.2969-1.2852-3.0859-0.79688-0.79688-1.8867-1.2852-3.0859-1.2852zm-60.715-4.5938v-7.8672c0-2.7305 1.1172-5.2109 2.9141-7.0039 1.7969-1.7969 4.2734-2.9102 7.0039-2.9102h21.172c2.7305 0 5.2109 1.1172 7.0039 2.9102 1.7969 1.7969 2.9102 4.2773 2.9102 7.0039v7.8672h19.707c2.4648 0 4.7109 1.0078 6.332 2.6328 1.6211 1.625 2.6328 3.8672 2.6328 6.3359v46.078c0 2.4688-1.0078 4.7109-2.6328 6.332-1.6211 1.6211-3.8672 2.6328-6.332 2.6328h-80.062c-2.4648 0-4.7109-1.0078-6.332-2.6328-1.6211-1.6211-2.6328-3.8672-2.6328-6.332v-46.074c0-2.4688 1.0078-4.7109 2.6328-6.3359 1.6211-1.6211 3.8672-2.6328 6.332-2.6328h19.34zm36.414 0v-7.8672c0-1.4609-0.60156-2.793-1.5664-3.7578-0.96484-0.96484-2.2969-1.5664-3.7578-1.5664h-21.172c-1.4609 0-2.793 0.60156-3.7578 1.5664-0.96484 0.96484-1.5664 2.2969-1.5664 3.7578v7.8672zm-60.129 26.527v28.516c0 1.1992 0.49609 2.2969 1.2852 3.0859 0.79297 0.79688 1.8867 1.2852 3.0859 1.2852h7.4688v-32.891h-11.844zm16.438 0v32.891h55.93v-32.891zm60.523 0v32.891h7.4688c1.1992 0 2.2969-0.49219 3.0859-1.2852 0.79688-0.79688 1.2852-1.8867 1.2852-3.0859v-28.516h-11.844z"/>
</svg>