<svg xmlns="http://www.w3.org/2000/svg" version="1.1" viewBox="-5.0 -10.0 110.0 135.0">
 <path fill="#000000" d="m29.504 62.926-17.652 22.035c-1.5508 1.9375-1.2383 4.7656 0.69531 6.3125l3.8086 3.0547c1.9375 1.5508 4.7656 1.2383 6.3203-0.69922l17.648-22.031 10.465-1.1562c0.40625-0.046875 0.78516-0.25391 1.0469-0.57812l36.883-46.043c0.4375-0.54687 0.46094-1.3203 0.050781-1.8906-2.6445-3.6719-5.8242-7.0469-9.5234-10.012-3.6992-2.9609-7.6875-5.3281-11.848-7.1055-0.64453-0.27344-1.3945-0.085938-1.832 0.46094l-36.887 46.043c-0.25781 0.32422-0.37891 0.73828-0.33203 1.1484zm1.8633 2.668-17.078 21.32c-0.46875 0.58984-0.375 1.4492 0.21484 1.9219l3.8086 3.0508c0.58594 0.47266 1.4492 0.37891 1.9219-0.21094l17.082-21.32zm47.25-12.906c-5.8086 0-10.523 4.7148-10.523 10.523 0 5.8086 4.7148 10.52 10.523 10.52 5.8047 0 10.52-4.7109 10.52-10.52 0-5.8086-4.7148-10.523-10.52-10.523zm2.4297 17.508c0.19531-0.66016 0.30469-1.3633 0.30469-2.0898 0-4.082-3.3164-7.3945-7.3984-7.3945-0.85156 0-1.6719 0.14062-2.4336 0.40625-0.19531 0.66406-0.30078 1.3672-0.30078 2.0938 0 4.082 3.3164 7.3945 7.3984 7.3945 0.85156 0 1.668-0.14453 2.4297-0.41016zm-13.793-62.031c3.5156 1.6094 6.8906 3.6719 10.039 6.1914 3.1523 2.5273 5.9023 5.3711 8.2344 8.4492 0 0-35.727 44.602-35.727 44.602l-9.8203 1.0859-7.3711-5.9102-1.0859-9.8164s35.73-44.602 35.73-44.602zm17.211 59.57c0.96875-1.2539 1.5469-2.8203 1.5469-4.5234 0-4.082-3.3164-7.3984-7.3945-7.3984-1.832 0-3.5078 0.66797-4.8008 1.7734h0.13672c5.6797 0 10.32 4.5117 10.512 10.148zm-15.336-36.59-17.59 21.953c-0.53516 0.67578-0.42969 1.6602 0.24609 2.1953 0.67188 0.54297 1.6562 0.43359 2.1953-0.24219l17.59-21.953c0.53516-0.67188 0.42969-1.6562-0.24609-2.1992-0.67188-0.53516-1.6562-0.42969-2.1953 0.24609z" fill-rule="evenodd"/>
</svg>