<svg xmlns="http://www.w3.org/2000/svg" xmlns:xlink="http://www.w3.org/1999/xlink" version="1.1" x="0px" y="0px" viewBox="0 0 70 87.5" style="enable-background:new 0 0 70 70;" xml:space="preserve" fill='#9a9a9a'><g><path d="M51.2104301,40.7709503c0-5.8602715-6.7271194-9.192934-11.387207-5.6608887   c-0.6234016-1.4880981-4.2213593-9.9720078-4.2641602-10.0725079c-1.2984772-3.1706963-2.6401024-1.6816406-4.2451191-1.6816406   c-0.4462891,0-0.6103516-0.0683594-0.6171875-0.0439453c-2.508234-4.2718124-6.3853245-14.3142061-7.2714844-16.9414063   c-0.4960938-1.4648438-1.1738281-3.4697266-3.2421875-3.7265625c-1.2727947-0.1709726-2.8298073,0.5476701-3.6275024,1.3275757   c0.0032959-0.0087891,0.0040894-0.0178223,0.0075073-0.0265503c-0.0050659,0.0130615-0.013855,0.024353-0.019165,0.0372925   c-0.4063358,0.4013753-0.6089516,0.7464375-0.7425528,1.3381348c-0.4634533,1.0026426-0.0854263,2.3974266,0.2750235,3.4476318   c0.8145752,2.3729858,1.9064941,4.6403809,2.989563,6.8994141c1.1955566,2.4935312,2.2053223,5.0623178,3.2904053,7.6036386   c0.3410034,0.7985229,0.8365479,1.6290283,0.6968994,2.5319824c-0.149847,0.9713249-1.7154121,0.9369946-2.6245728,2.4863281   c-0.9733505,1.6606922,0.6236305,3.498064,2.7592773,8.3464947c3.6490688,8.2847176,11.9382801,28.8085175,12.8652363,29.737793   c0.7158241,1.3527222,13.6751137,2.5476913,14.0547485-4.9089355c0.065918-1.299633-0.2011185-1.5888901-5.2127075-13.6333618   C48.4423637,47.4357452,51.2104301,44.4218292,51.2104301,40.7709503z M48.6126518,37.4525299   c-0.0053101,0.0210571-0.0187988,0.0377808-0.0223389,0.0596313c-0.2353516,1.4511719-0.8525391,2.8183594-1.7841797,3.9550781   c-1.9304657,2.3479347-5.3231812,3.6345024-5.8172607,3.963562c-0.3395386-0.2276001-0.6502075-0.4936523-0.9319458-0.7879639   c3.8495026-1.814827,6.8486214-3.8403244,7.8286133-7.9992065C48.1533012,36.8891754,48.3965263,37.1596222,48.6126518,37.4525299z    M46.5602837,35.7383575c-0.0923309,0.3045273-0.270195,2.0560684-1.732666,3.8382568   c-1.9003105,2.313755-5.1929779,3.5231857-5.657959,3.8571777C36.5985413,38.6900673,41.6599693,33.3354874,46.5602837,35.7383575z    M24.9637852,25.5918751c-0.1397705-0.4992065-0.3059692-1.0392456-0.4933472-1.6103516   c1.3640747-0.4463501,2.7007446-1.0482178,3.9268799-1.7709351c0.2791138,0.5460815,0.550293,1.0512695,0.8120117,1.512146   C27.8113785,24.4808712,26.6883869,25.0387115,24.9637852,25.5918751z M18.2992954,4.555131   c2.279707-1.1949267,2.9871483,0.1736789,3.7050781,2.2958984c0.6527901,1.9368496,3.5914993,9.5794325,5.7254639,14.0137949   c-1.1644287,0.6956787-2.4414673,1.2728882-3.7443237,1.697937c-1.4884911-4.1906319-2.8123131-6.9697714-4.1344604-10.0867319   c-0.3310547-0.78125-0.6621094-1.5634766-1.0048828-2.3378906c-0.5491505-1.2573452-1.3852825-2.4826832-1.5947266-3.6826172   C17.0796871,5.4563913,17.4376869,5.0123482,18.2992954,4.555131z M48.4418755,60.5404816   c-0.1064453,0.8564453-0.5244141,1.6845703-1.1474609,2.2714844c-0.5839844,0.5507813-1.3427734,0.9169922-2.0751953,1.2304688   c-2.0164375,0.8634796-4.1999207,1.4702911-6.359375,1.0322266c-1.9405327-0.3899155-1.6138268-0.6317291-2.0166016-1.5761719   c-2.8967171-6.8307648-14.4054565-34.3361473-14.4667988-34.4365234c0.283884-0.2313118,1.7406387-0.7754364,2.4277954-1.8497925   c1.715271-0.4946899,3.4304199-1.2149048,4.9794312-2.1043091c0.3683834-0.2140121,0.4272537-0.1675777,0.6114502-0.3665161   c0.8922825,0.2313995,1.8382092,0.0784416,2.720583-0.1832886c0.4560547-0.1328125,0.5742188-0.125,1.0556641,1.0478516   c0.0427437,0.1003933,3.7595558,8.8631802,4.4870605,10.6051617c-3.6174202,4.3122253-0.995594,10.9548378,4.6107178,11.6140137   C48.9449348,61.4191628,48.4715347,60.298954,48.4418755,60.5404816z M42.7704887,46.2116852   c3.1552238-1.5710449,5.5950089-3.3550262,6.8048096-6.6507568C50.4685669,43.6024475,46.8144569,47.2030716,42.7704887,46.2116852   z"/><path d="M54.0317192,31.2104053c0.3603516-0.203125,0.4882813-0.6601563,0.2851563-1.0214844   c-0.2021484-0.3583984-0.6582031-0.4882813-1.0214844-0.2851563l-2.2734375,1.2802734   c-0.6689186,0.3770599-0.4015999,1.4033184,0.3691406,1.4033184   C51.7365761,32.5873566,51.7315025,32.4689636,54.0317192,31.2104053z"/><path d="M49.3412895,30.41646l0.8144531-2.15625c0.1464844-0.3867188-0.0488281-0.8203125-0.4365234-0.9658203   c-0.3867188-0.1464844-0.8193359,0.0488281-0.9658203,0.4365234L47.9389458,29.88521   c-0.1464844,0.3876953,0.0488281,0.8203125,0.4355469,0.9667969C48.7625771,30.9986172,49.1950684,30.8034382,49.3412895,30.41646z   "/><path d="M46.2533989,30.251421c0.3945313-0.1279297,0.6103516-0.5507813,0.4814453-0.9443359l-0.5810547-1.7939453   c-0.1269531-0.3935547-0.5517578-0.6083984-0.9443359-0.4833984c-0.3945313,0.1279297-0.6103516,0.5498047-0.4833984,0.9443359   l0.5830078,1.7958984C45.4388161,30.1715965,45.8709946,30.3788872,46.2533989,30.251421z" fill='#9a9a9a'/></g></svg>