<svg xmlns="http://www.w3.org/2000/svg" xmlns:xlink="http://www.w3.org/1999/xlink" xmlns:serif="http://www.serif.com/" viewBox="0 0 24 30" version="1.1" xml:space="preserve" style="" x="0px" y="0px" fill-rule="evenodd" clip-rule="evenodd" stroke-linejoin="round" stroke-miterlimit="2"><g><path d="M14,2.25l-7,0c-1.26,-0 -2.468,0.5 -3.359,1.391c-0.891,0.891 -1.391,2.099 -1.391,3.359c0,2.977 0,7.023 0,10c-0,1.26 0.5,2.468 1.391,3.359c0.891,0.891 2.099,1.391 3.359,1.391l10,0c1.26,0 2.468,-0.5 3.359,-1.391c0.891,-0.891 1.391,-2.099 1.391,-3.359c0,-3.146 0,-7 0,-7c0,-0.414 -0.336,-0.75 -0.75,-0.75c-0.414,0 -0.75,0.336 -0.75,0.75c0,-0 0,3.854 -0,7c0,0.862 -0.342,1.689 -0.952,2.298c-0.609,0.61 -1.436,0.952 -2.298,0.952l-10,0c-0.862,0 -1.689,-0.342 -2.298,-0.952c-0.61,-0.609 -0.952,-1.436 -0.952,-2.298c0,-2.977 0,-7.023 -0,-10c-0,-0.862 0.342,-1.689 0.952,-2.298c0.609,-0.61 1.436,-0.952 2.298,-0.952l7,0c0.414,0 0.75,-0.336 0.75,-0.75c0,-0.414 -0.336,-0.75 -0.75,-0.75Z"/><path d="M21.469,15.414c-0,0 -2.044,-1.634 -3.518,-2.813c-1.142,-0.915 -2.801,-0.774 -3.773,0.32c-2.254,2.535 -6.739,7.581 -6.739,7.581c-0.275,0.309 -0.247,0.784 0.063,1.059c0.309,0.275 0.784,0.247 1.059,-0.063c-0,0 4.484,-5.045 6.738,-7.581c0.442,-0.497 1.196,-0.561 1.715,-0.145c0,-0 3.517,2.814 3.517,2.814c0.324,0.258 0.796,0.206 1.055,-0.117c0.258,-0.324 0.206,-0.796 -0.117,-1.055Z"/><path d="M13.005,14.445c-0,0 -2.657,-2.415 -4.277,-3.888c-0.976,-0.887 -2.445,-0.957 -3.5,-0.165c-1.165,0.873 -2.678,2.008 -2.678,2.008c-0.331,0.248 -0.398,0.719 -0.15,1.05c0.248,0.331 0.719,0.398 1.05,0.15c0,-0 1.513,-1.135 2.678,-2.008c0.479,-0.36 1.147,-0.329 1.591,0.075l4.276,3.888c0.307,0.278 0.782,0.256 1.06,-0.05c0.278,-0.307 0.256,-0.782 -0.05,-1.06Z"/><path d="M19.409,2.47c-0.293,-0.293 -0.768,-0.293 -1.061,-0l-3.535,3.535c-0.141,0.141 -0.22,0.332 -0.22,0.531l0,2.121c0,0.414 0.336,0.75 0.75,0.75l2.121,-0c0.199,-0 0.39,-0.079 0.531,-0.22l3.535,-3.535c0.293,-0.293 0.293,-0.768 0,-1.061l-2.121,-2.121Zm-0.53,1.591l1.06,1.06c0,0 -2.785,2.786 -2.785,2.786c-0,-0 -1.061,-0 -1.061,-0c0,-0 0,-1.061 0,-1.061l2.786,-2.785Z"/><circle cx="9.5" cy="6.5" r="1.5"/></g></svg>