<svg xmlns="http://www.w3.org/2000/svg" version="1.1" viewBox="-5.0 -10.0 110.0 135.0" fill="#000000">
 <g>
  <path d="m85.586 38.102c-3.25-3.2227-7.6367-5.0312-12.211-5.0391-4.2734-0.011719-8.3945 1.5703-11.562 4.4375-3.1797-2.8438-7.2969-4.418-11.562-4.4297h-0.5c-4.2656 0.011719-8.3828 1.5859-11.562 4.4297-3.168-2.8633-7.293-4.4414-11.562-4.4258-4.5781-0.003907-8.9727 1.8086-12.215 5.0469-3.2383 3.2344-5.0586 7.6289-5.0586 12.207s1.8242 8.9727 5.0625 12.207l21.812 21.812c1.2422 1.1719 3.1797 1.1719 4.4219 0l9.3516-9.3672 9.3516 9.3516v0.003907c1.2227 1.2188 3.1992 1.2188 4.4219 0l21.812-21.812c3.2266-3.2461 5.0352-7.6367 5.0352-12.211s-1.8086-8.9648-5.0352-12.211zm-47.148 39.605-19.602-19.605c-3.1562-3.1445-4.1055-7.8867-2.3984-12.004 1.707-4.1133 5.7305-6.7969 10.188-6.7852 2.9062-0.011719 5.6953 1.1367 7.75 3.1875-1.668 3.2422-2.2578 6.9336-1.6914 10.535 0.57031 3.6016 2.2695 6.9297 4.8555 9.5039l8.0391 8.0391zm3.5234-19.602v-0.003907c-3.7578-3.832-4.2422-9.8008-1.1523-14.188 0.039062-0.054687 0.074218-0.10156 0.11328-0.16016 0.30859-0.44141 0.65625-0.85547 1.0391-1.2305 2.0742-2.0547 4.8711-3.2109 7.7891-3.2109h0.5c2.918 0 5.7188 1.1562 7.7891 3.2109 0.375 0.37891 0.71875 0.78906 1.0234 1.2266 0.035156 0.054688 0.070312 0.10156 0.10547 0.15234 3.1094 4.3867 2.6289 10.371-1.1406 14.203l-8.0273 8.0391zm39.207 0-19.605 19.602-7.1445-7.1445 8.0391-8.0391h0.003907c2.5859-2.5742 4.2891-5.9023 4.8594-9.5039 0.56641-3.6055-0.023437-7.293-1.6953-10.539 2.0586-2.043 4.8477-3.1836 7.75-3.168 4.457-0.011719 8.4805 2.6719 10.188 6.7852 1.707 4.1172 0.75781 8.8594-2.3984 12.004z"/>
  <path d="m50 31.25c3.793 0 7.2109-2.2852 8.6602-5.7891 1.4531-3.5 0.64844-7.5352-2.0312-10.215-2.6797-2.6797-6.7148-3.4844-10.215-2.0312-3.5039 1.4492-5.7891 4.8672-5.7891 8.6602 0 5.1758 4.1992 9.375 9.375 9.375zm0-12.5c1.2656 0 2.4023 0.76172 2.8867 1.9297 0.48438 1.168 0.21484 2.5117-0.67578 3.4062-0.89453 0.89062-2.2383 1.1602-3.4062 0.67578-1.168-0.48438-1.9297-1.6211-1.9297-2.8867 0-1.7266 1.3984-3.125 3.125-3.125z"/>
  <path d="m25 31.25c3.793 0 7.2109-2.2852 8.6602-5.7891 1.4531-3.5 0.64844-7.5352-2.0312-10.215-2.6797-2.6797-6.7148-3.4844-10.215-2.0312-3.5039 1.4492-5.7891 4.8672-5.7891 8.6602 0 5.1758 4.1992 9.375 9.375 9.375zm0-12.5c1.2656 0 2.4023 0.76172 2.8867 1.9297 0.48438 1.168 0.21484 2.5117-0.67578 3.4062-0.89453 0.89062-2.2383 1.1602-3.4062 0.67578-1.168-0.48438-1.9297-1.6211-1.9297-2.8867 0-1.7266 1.3984-3.125 3.125-3.125z"/>
  <path d="m75 31.25c3.793 0 7.2109-2.2852 8.6602-5.7891 1.4531-3.5 0.64844-7.5352-2.0312-10.215-2.6797-2.6797-6.7148-3.4844-10.215-2.0312-3.5039 1.4492-5.7891 4.8672-5.7891 8.6602 0 5.1758 4.1992 9.375 9.375 9.375zm0-12.5c1.2656 0 2.4023 0.76172 2.8867 1.9297 0.48438 1.168 0.21484 2.5117-0.67578 3.4062-0.89453 0.89062-2.2383 1.1602-3.4062 0.67578-1.168-0.48438-1.9297-1.6211-1.9297-2.8867 0-1.7266 1.3984-3.125 3.125-3.125z"/>
 </g>
</svg>