<svg xmlns:dc="http://purl.org/dc/elements/1.1/" xmlns:cc="http://creativecommons.org/ns#" xmlns:rdf="http://www.w3.org/1999/02/22-rdf-syntax-ns#" xmlns:svg="http://www.w3.org/2000/svg" xmlns="http://www.w3.org/2000/svg" xmlns:sodipodi="http://sodipodi.sourceforge.net/DTD/sodipodi-0.dtd" xmlns:inkscape="http://www.inkscape.org/namespaces/inkscape" viewBox="0 0 10.583333 13.2291675" version="1.1" x="0px" y="0px"><svg:g><svg:path style="font-style:normal;font-variant:normal;font-weight:normal;font-stretch:normal;font-size:medium;line-height:normal;font-family:sans-serif;font-variant-ligatures:normal;font-variant-position:normal;font-variant-caps:normal;font-variant-numeric:normal;font-variant-alternates:normal;font-feature-settings:normal;text-indent:0;text-align:start;text-decoration:none;text-decoration-line:none;text-decoration-style:solid;text-decoration-color:#000000;letter-spacing:normal;word-spacing:normal;text-transform:none;writing-mode:lr-tb;direction:ltr;text-orientation:mixed;dominant-baseline:auto;baseline-shift:baseline;text-anchor:start;white-space:normal;shape-padding:0;clip-rule:nonzero;display:inline;overflow:visible;visibility:visible;opacity:1;isolation:auto;mix-blend-mode:normal;color-interpolation:sRGB;color-interpolation-filters:linearRGB;solid-color:#000000;solid-opacity:1;vector-effect:none;fill:#9a9a9a;fill-opacity:1;fill-rule:nonzero;stroke:none;stroke-width:0.52916682;stroke-linecap:round;stroke-linejoin:round;stroke-miterlimit:4;stroke-dasharray:none;stroke-dashoffset:0;stroke-opacity:1;paint-order:stroke fill markers;color-rendering:auto;image-rendering:auto;shape-rendering:auto;text-rendering:auto;enable-background:accumulate" d="m 4.3007721,0.79478315 c -1.151374,0 -2.090311,0.93842705 -2.090311,2.08979505 0,0.745525 0.394986,1.399898 0.984951,1.769917 -1.136137,0.443035 -1.941999,1.545796 -1.941999,2.839104 v 0.836126 a 0.26460984,0.26460984 0 0 0 0.264067,0.265615 h 3.637502 c 0.369785,0.707879 1.110621,1.19321 1.962156,1.19321 1.219051,0 2.212784,-0.993735 2.212784,-2.212785 0,-1.21906 -0.993733,-2.212785 -2.212784,-2.212785 -0.196065,0 -0.385678,0.02826 -0.566891,0.07648 -0.313267,-0.342946 -0.703218,-0.613605 -1.144633,-0.784965 0.589965,-0.370019 0.984951,-1.024392 0.984951,-1.769917 0,-1.151368 -0.938419,-2.08979505 -2.089793,-2.08979505 z m 0,0.52710005 c 0.865392,0 1.560111,0.697307 1.560111,1.562695 0,0.865392 -0.694719,1.560629 -1.560111,1.560629 -0.865391,0 -1.560629,-0.695237 -1.560629,-1.560629 0,-0.865388 0.695238,-1.562695 1.560629,-1.562695 z m 0,3.652491 c 0.67024,0 1.272852,0.259016 1.722374,0.680577 -0.667173,0.381802 -1.119312,1.099497 -1.119312,1.920814 0,0.168754 0.0213,0.332325 0.05736,0.490408 h -3.178101 v -0.572574 c 0,-1.399749 1.118002,-2.519225 2.517677,-2.519225 z m 2.816366,0.917773 c 0.933069,0 1.683617,0.750539 1.683617,1.683618 0,0.933069 -0.750548,1.683618 -1.683617,1.683618 -0.933072,0 -1.683618,-0.750549 -1.683618,-1.683618 0,-0.933079 0.750546,-1.683618 1.683618,-1.683618 z m 0.0093,0.377238 a 0.26460982,0.26460982 0 0 0 -0.259416,0.177766 l -0.210838,0.605649 -0.640787,0.01291 a 0.26460982,0.26460982 0 0 0 -0.153998,0.474906 l 0.510048,0.387572 -0.185002,0.613916 a 0.26460982,0.26460982 0 0 0 0.403593,0.294039 l 0.526582,-0.365868 0.526068,0.365868 a 0.26460982,0.26460982 0 0 0 0.404109,-0.293522 l -0.185002,-0.613398 0.51108,-0.387576 a 0.26460982,0.26460982 0 0 0 -0.154512,-0.475938 l -0.641305,-0.01291 -0.210322,-0.605649 a 0.26460982,0.26460982 0 0 0 -0.213942,-0.175182 0.26460982,0.26460982 0 0 0 -0.02635,-0.0026 z m -0.0093,1.071253 0.02066,0.05994 a 0.26460982,0.26460982 0 0 0 0.243915,0.177768 l 0.06408,0.0011 -0.05013,0.03876 a 0.26460982,0.26460982 0 0 0 -0.09405,0.287319 l 0.0186,0.0615 -0.05271,-0.03669 a 0.26460982,0.26460982 0 0 0 -0.302308,-5.28e-4 l -0.05168,0.03617 0.0181,-0.06098 a 0.26460982,0.26460982 0 0 0 -0.09354,-0.286803 l -0.05064,-0.03824 0.06408,-0.0021 a 0.26460982,0.26460982 0 0 0 0.24443,-0.177766 z"/></svg:g></svg>