<svg xmlns="http://www.w3.org/2000/svg" xmlns:xlink="http://www.w3.org/1999/xlink" version="1.1" x="0px" y="0px" viewBox="0 0 64 80" style="enable-background:new 0 0 64 64;" xml:space="preserve" fill="#db1a0f"><g><path d="M8.9,52.2c0.1,0.1,0.3,0.1,0.4,0.1h45.4c0.1,0,0.3,0,0.4-0.1c0,0,0,0,0,0c0,0,0,0,0,0c0.1,0,0.2-0.1,0.3-0.2   c0,0,0,0,0.1-0.1c0.1-0.1,0.1-0.1,0.1-0.2c0,0,0-0.1,0-0.1c0-0.1,0.1-0.2,0.1-0.3V27.5c0,0,0,0,0-0.1c0,0,0-0.1,0-0.1   c0-0.1,0-0.2-0.1-0.2c0,0,0-0.1,0-0.1c-0.1-0.1-0.1-0.2-0.2-0.3c0,0,0,0,0,0l-7.2-5.9v-8.1c0-0.6-0.4-1-1-1H16.9c-0.6,0-1,0.4-1,1   v8.1l-7.2,5.9c0,0,0,0,0,0c-0.1,0.1-0.2,0.2-0.2,0.3c0,0,0,0.1,0,0.1c0,0.1-0.1,0.2-0.1,0.2c0,0,0,0.1,0,0.1c0,0,0,0,0,0.1v23.7   c0,0.1,0,0.2,0.1,0.3c0,0,0,0.1,0,0.1c0,0.1,0.1,0.1,0.1,0.2c0,0,0,0.1,0.1,0.1C8.7,52,8.8,52.1,8.9,52.2   C8.9,52.1,8.9,52.1,8.9,52.2C8.9,52.2,8.9,52.2,8.9,52.2z M16.2,35.8C16.2,35.8,16.2,35.8,16.2,35.8l3.6,3.6l-9.5,9.5V29.9   L16.2,35.8z M21.6,40.4h20.9l9.9,9.9H11.7L21.6,40.4z M47.8,35.8C47.8,35.8,47.8,35.8,47.8,35.8l5.9-5.9v18.9l-9.5-9.5L47.8,35.8z    M53.2,27.6l-5.1,5.1v-9.3L53.2,27.6z M46.1,13.8v20.9l-3.7,3.7H21.6l-3.7-3.7V13.8H46.1z M15.9,32.7l-5.1-5.1l5.1-4.1V32.7z"/><path d="M31.9,36.1C31.9,36.1,32,36.1,31.9,36.1c1.3,0,2.5-0.3,3.6-0.8c0.5-0.2,0.7-0.8,0.5-1.3c-0.2-0.5-0.8-0.7-1.3-0.4   c-0.8,0.4-1.7,0.6-2.7,0.6c-3.1,0-5.7-2.7-5.7-5.7c0-1.6,0.6-3,1.7-4.2c1.1-1.1,2.6-1.7,4.1-1.7c2.5,0,4.8,1.6,5.5,4   c0.2,0.5,0,0.9-0.3,1.2c-0.1,0.2-0.5,0.4-1,0.3c-0.2,0-0.4-0.2-0.7-0.6c-0.4-1.7-1.9-2.9-3.6-2.9c-2.1,0-3.8,1.7-3.8,3.8   S29.9,32,32,32c1.5,0,2.8-0.9,3.4-2.2c0.2,0.1,0.4,0.1,0.5,0.2c1,0.2,2.1-0.2,2.8-1c0.8-0.9,1-2,0.7-3.1c-1-3.2-4-5.4-7.4-5.4   c-2.1,0-4.1,0.8-5.6,2.3c-1.5,1.5-2.3,3.5-2.2,5.6C24.2,32.5,27.7,36,31.9,36.1z M32,30c-1,0-1.8-0.8-1.8-1.8s0.8-1.8,1.8-1.8   s1.8,0.8,1.8,1.8S33,30,32,30z"/></g></svg>