<svg xmlns="http://www.w3.org/2000/svg" version="1.1" viewBox="-5.0 -10.0 110.0 135.0">
 <path fill="#000" d="m48.508 7.2344v15.941c0 2.9805 2.9844 2.9805 2.9844 0v-15.941c0-2.9805-2.9844-2.9805-2.9844 0zm1.4922 26.355c4.3516 0 8.5273 1.7266 11.605 4.8047s4.8047 7.2539 4.8047 11.605-1.7266 8.5273-4.8047 11.605-7.2539 4.8047-11.605 4.8047-8.5273-1.7266-11.605-4.8047-4.8047-7.2539-4.8047-11.605 1.7266-8.5273 4.8047-11.605 7.2539-4.8047 11.605-4.8047zm37.766 12.574c-0.88672-8.6953-4.7461-16.82-10.926-23.004-6.1836-6.1797-14.309-10.039-23.004-10.926v6.3672c7.0117 0.85547 13.535 4.0352 18.531 9.0312 4.9961 4.9961 8.1797 11.52 9.0391 18.531zm-6.3594 7.6758v-0.003906c-0.85938 7.0156-4.0391 13.539-9.0352 18.535s-11.52 8.1758-18.535 9.0352v6.3594c8.6953-0.88672 16.82-4.7461 23.004-10.926 6.1797-6.1836 10.039-14.309 10.926-23.004zm11.359-5.3281-15.941-0.003907c-2.9805 0-2.9805 2.9844 0 2.9844h15.941c2.9805 0 2.9805-2.9844 0-2.9844zm-46.602 32.898v-0.003906c-7.0117-0.85938-13.535-4.0391-18.531-9.0352-4.9961-4.9961-8.1758-11.52-9.0312-18.535h-6.3633c0.88672 8.6953 4.7461 16.82 10.926 23 6.1797 6.1797 14.305 10.043 23 10.93v-6.3594zm5.3281 11.359v-15.945c0-2.9805-2.9844-2.9805-2.9844 0v15.941c0 2.9805 2.9844 2.9805 2.9844 0zm-32.898-46.602c0.85938-7.0117 4.0391-13.535 9.0352-18.531 4.9961-4.9961 11.52-8.1797 18.535-9.0352v-6.3633c-8.6953 0.88672-16.82 4.7461-23 10.926-6.1797 6.1797-10.043 14.305-10.93 23zm-11.359 5.3242h15.941c2.9805 0 2.9805-2.9844 0-2.9844h-15.941c-2.9805 0-2.9805 2.9844 0 2.9844z" fill-rule="evenodd"/>
</svg>