<svg xmlns="http://www.w3.org/2000/svg" viewBox="0 0 32 40" x="0px" y="0px"><g><path d="M27.72,9.6a1,1,0,0,0-1,.05l-4.32,2.89V10.3A2.3,2.3,0,0,0,20.09,8H6a2.3,2.3,0,0,0-2.29,2.3v8.41A2.3,2.3,0,0,0,6,21H9.85L8.56,22.29A1,1,0,0,0,10,23.7l2.7-2.7h.17l2.71,2.7A1,1,0,0,0,17,22.29L15.67,21h4.42a2.3,2.3,0,0,0,2.29-2.29V16.47l4.32,2.89a1,1,0,0,0,1.55-.83v-8A1,1,0,0,0,27.72,9.6Zm-7.34,9.11a.29.29,0,0,1-.29.29H6a.29.29,0,0,1-.29-.29V10.3A.3.3,0,0,1,6,10H20.09a.3.3,0,0,1,.29.3v8.41Zm5.87-2.06L23,14.5l3.21-2.14Z"/></g><text x="0" y="47" fill="#000000" font-size="5px" font-weight="bold" font-family="'Helvetica Neue', Helvetica, Arial-Unicode, Arial, Sans-serif">Created by Zky Icon</text><text x="0" y="52" fill="#000000" font-size="5px" font-weight="bold" font-family="'Helvetica Neue', Helvetica, Arial-Unicode, Arial, Sans-serif">from the Noun Project</text></svg>