<svg xmlns="http://www.w3.org/2000/svg" version="1.1" viewBox="-5.0 -10.0 110.0 135.0">
 <path fill="#9a9a9a" d="m49.113 8.3438c-14.074 0.32031-27.652 7.7578-35.195 20.82-11.492 19.906-4.6562 45.422 15.25 56.918 19.906 11.492 45.422 4.6562 56.918-15.25 11.492-19.906 4.6562-45.422-15.25-56.918-6.8438-3.9492-14.348-5.7383-21.719-5.5703zm0.078125 4.1445c5.9805-0.13281 12.062 1.1758 17.723 4.043l-17.676 30.621-9.0664-5.2344c5.0586-9.7188 6.3672-20.449 3.207-28.84 1.9141-0.34375 3.8555-0.54688 5.8086-0.58984zm-9.9023 1.5664c2.7852 6.9414 1.8906 16.77-2.7266 25.777l-17.941-10.355c5.0156-7.6875 12.426-12.965 20.668-15.422zm31.238 4.5586c7.082 4.6211 12.117 11.277 14.785 18.738-8.8164 1.4883-17.414 7.9844-23.277 17.188l-9.1875-5.3008zm-53.988 14.469 17.941 10.355c-5.5 8.4922-13.566 14.172-20.969 15.215-1.9805-8.3516-1.1172-17.395 3.0273-25.57zm69.965 8.3047c1.9688 8.3398 1.1016 17.367-3.0352 25.527l-17.828-10.293c5.4688-8.4609 13.484-14.141 20.863-15.234zm-48.418 4.1328 9.0703 5.2383-17.676 30.621c-7.0664-4.6094-12.098-11.246-14.77-18.688 8.8477-1.4453 17.48-7.9375 23.375-17.168zm12.676 7.3203 9.1875 5.3047c-5.0273 9.6875-6.332 20.375-3.1992 28.742-7.8086 1.4297-16.109 0.39844-23.664-3.4297zm12.801 7.3906 17.82 10.289c-4.9922 7.6484-12.359 12.91-20.551 15.383-2.7539-6.9258-1.8516-16.699 2.7305-25.672z"/>
</svg>