<svg xmlns="http://www.w3.org/2000/svg" version="1.1" viewBox="-5.0 -10.0 110.0 135.0" fill="#000">
 <path d="m21.777 78.223c0.12891 0.12891 1.4531 1.1328 8.5898-2.7969 4.4766-2.457 10.496-6.4648 17.414-11.582 13.457-9.957 26.82-21.426 32.562-27.168 12.473-12.473 14.719-23.281 10.488-27.512-4.2305-4.2305-15.039-1.9844-27.512 10.488-5.7422 5.7383-17.211 19.102-27.168 32.562-5.1172 6.918-9.1211 12.941-11.582 17.414-3.9258 7.1406-2.9219 8.4648-2.7969 8.5898zm0.81641 2.2734c-0.98047 0-1.7266-0.27734-2.2695-0.82031-1.6172-1.6172-0.86328-5.0195 2.4453-11.035 2.5391-4.6172 6.4883-10.555 11.734-17.645 10.012-13.539 21.57-27 27.363-32.793 5.9531-5.9531 12.02-10.098 17.543-11.984 5.4688-1.8672 10.043-1.3359 12.875 1.4961 2.832 2.832 3.3633 7.4062 1.4961 12.875-1.8867 5.5234-6.0312 11.59-11.984 17.543-5.793 5.793-19.254 17.352-32.793 27.367-7.0938 5.2422-13.027 9.1914-17.645 11.73-3.9922 2.1953-6.832 3.2656-8.7656 3.2656z" fill-rule="evenodd"/>
 <path d="m34.387 94.879c-0.35547 0-0.70312-0.18359-0.89062-0.51562l-8.7031-15.078c-0.28516-0.49219-0.11328-1.1211 0.375-1.4023 0.49219-0.28516 1.1211-0.11328 1.4023 0.375l8.1914 14.188 2.9102-1.6797-5.3203-15.52c-0.18359-0.53516 0.10156-1.1211 0.64063-1.3047 0.53516-0.18359 1.1211 0.10156 1.3047 0.64062l5.5898 16.32c0.16016 0.46484-0.03125 0.97656-0.45703 1.2227l-4.5273 2.6172c-0.16406 0.09375-0.33984 0.13672-0.51562 0.13672z" fill-rule="evenodd"/>
 <path d="m21.227 75.348c-0.17578 0-0.35156-0.042968-0.51562-0.13672l-15.078-8.707c-0.23437-0.13672-0.41016-0.35938-0.47656-0.62109-0.070312-0.26562-0.035156-0.54297 0.10156-0.78125l2.6172-4.5312c0.24609-0.42578 0.75781-0.61719 1.2227-0.45703l16.32 5.5898c0.53516 0.18359 0.82422 0.76953 0.63672 1.3047-0.18359 0.53516-0.76953 0.82422-1.3047 0.64063l-15.52-5.3203-1.6797 2.9102 14.188 8.1914c0.49219 0.28516 0.66016 0.91406 0.375 1.4023-0.19141 0.33203-0.53516 0.51562-0.89062 0.51562z" fill-rule="evenodd"/>
 <path d="m28.43 72.598c-0.26563 0-0.52734-0.10156-0.72656-0.30078-0.40234-0.40234-0.40234-1.0508 0-1.4531l4.125-4.125c0.39844-0.40234 1.0508-0.40234 1.4531 0s0.40234 1.0508 0 1.4531l-4.125 4.125c-0.19922 0.19922-0.46484 0.30078-0.72656 0.30078z" fill-rule="evenodd"/>
 <path d="m83.402 74.664c-0.34375 0-0.67578-0.17187-0.87109-0.48047l-15.379-24.516c-0.30078-0.48047-0.15625-1.1133 0.32422-1.418 0.48047-0.30078 1.1133-0.15625 1.418 0.32422l14.875 23.711 5.75-3.0039-11.918-29.059c-0.21484-0.52734 0.035157-1.125 0.55859-1.3398 0.52734-0.21484 1.125 0.035157 1.3398 0.5625l12.273 29.922c0.20312 0.49219-0.003907 1.0547-0.47656 1.3008l-7.4219 3.8789c-0.15234 0.078125-0.31641 0.11719-0.47656 0.11719z" fill-rule="evenodd"/>
 <path d="m50.875 33.008c-0.1875 0-0.375-0.050781-0.54688-0.16016l-24.516-15.379c-0.45312-0.28516-0.61328-0.87109-0.36328-1.3438l3.8789-7.4219c0.24609-0.47266 0.80859-0.67578 1.3008-0.47266l29.926 12.27c0.52344 0.21484 0.77734 0.81641 0.55859 1.3398-0.21484 0.52344-0.81641 0.77734-1.3398 0.55859l-29.059-11.914-3.0039 5.7461 23.711 14.875c0.48047 0.30078 0.625 0.93359 0.32422 1.418-0.19531 0.30859-0.53125 0.48047-0.87109 0.48047z" fill-rule="evenodd"/>
 <path d="m85.984 15.047h-6.0156c-0.56641 0-1.0273-0.46094-1.0273-1.0273 0-0.57031 0.46094-1.0273 1.0273-1.0273h6.0156c0.56641 0 1.0273 0.45703 1.0273 1.0273 0 0.56641-0.46094 1.0273-1.0273 1.0273z" fill-rule="evenodd"/>
 <path d="m85.984 21.059c-0.56641 0-1.0273-0.46094-1.0273-1.0273v-6.0117c0-0.56641 0.46094-1.0273 1.0273-1.0273s1.0273 0.45703 1.0273 1.0273v6.0117c0 0.56641-0.46094 1.0273-1.0273 1.0273z" fill-rule="evenodd"/>
</svg>