<svg xmlns="http://www.w3.org/2000/svg" version="1.1" viewBox="-5.0 -10.0 110.0 135.0">
 <path fill="#000000" d="m76 32.859c0-4.3398-3.5195-7.8594-7.8594-7.8594h-48.281c-4.3398 0-7.8594 3.5195-7.8594 7.8594v34.289c0 4.3398 3.5195 7.8594 7.8594 7.8594h48.289c4.3398 0 7.8594-3.5195 7.8594-7.8594v-5.1406l12 4v-32l-12 4v-5.1406zm-4 34.281c0 2.1289-1.7305 3.8594-3.8594 3.8594h-48.281c-2.1289 0-3.8594-1.7305-3.8594-3.8594v-34.289c0-2.1289 1.7305-3.8594 3.8594-3.8594h48.289c2.1289 0 3.8594 1.7305 3.8594 3.8594v34.289zm12-27.59v20.898l-8-2.6719v-15.57l8-2.6719z"/>
</svg>